<?xml version="1.0" standalone="no"?>
<!DOCTYPE svg PUBLIC "-//W3C//DTD SVG 1.1//EN" "http://www.w3.org/Graphics/SVG/1.1/DTD/svg11.dtd">

<svg width="800" height="600" version="1.1" xmlns="http://www.w3.org/2000/svg">
  <ellipse stroke="black" stroke-width="1" fill="none" cx="41.5" cy="221.5" rx="30" ry="30"/>
	<text x="24.5" y="227.5" font-family="Times New Roman" font-size="20">Add</text>
	<ellipse stroke="black" stroke-width="1" fill="none" cx="755.5" cy="221.5" rx="30" ry="30"/>
	<text x="727.5" y="227.5" font-family="Times New Roman" font-size="20">Update</text>
	<ellipse stroke="black" stroke-width="1" fill="none" cx="426.5" cy="37.5" rx="30" ry="30"/>
	<text x="415.5" y="43.5" font-family="Times New Roman" font-size="20">Ok</text>
	<ellipse stroke="black" stroke-width="1" fill="none" cx="244.5" cy="340.5" rx="30" ry="30"/>
	<text x="164.5" y="346.5" font-family="Times New Roman" font-size="20">browseAddWarning</text>
	<ellipse stroke="black" stroke-width="1" fill="none" cx="426.5" cy="570.5" rx="30" ry="30"/>
	<text x="398.5" y="576.5" font-family="Times New Roman" font-size="20">Closed</text>
	<ellipse stroke="black" stroke-width="1" fill="none" cx="136.5" cy="523.5" rx="30" ry="30"/>
	<text x="65.5" y="529.5" font-family="Times New Roman" font-size="20">closeAddWarning</text>
	<ellipse stroke="black" stroke-width="1" fill="none" cx="492.5" cy="340.5" rx="30" ry="30"/>
	<text x="401.5" y="346.5" font-family="Times New Roman" font-size="20">browseUpdateWarning</text>
	<ellipse stroke="black" stroke-width="1" fill="none" cx="670.5" cy="523.5" rx="30" ry="30"/>
	<text x="588.5" y="529.5" font-family="Times New Roman" font-size="20">closeUpdateWarning</text>
	<polygon stroke="black" stroke-width="1" points="729.317,206.856 452.683,52.144"/>
	<polygon fill="black" stroke-width="1" points="452.683,52.144 457.225,60.412 462.106,51.685"/>
	<text x="595.5" y="120.5" font-family="Times New Roman" font-size="20">save</text>
	<polygon stroke="black" stroke-width="1" points="68.568,208.564 399.432,50.436"/>
	<polygon fill="black" stroke-width="1" points="399.432,50.436 390.058,49.375 394.37,58.397"/>
	<text x="238.5" y="150.5" font-family="Times New Roman" font-size="20">save</text>
	<polygon stroke="black" stroke-width="1" points="67.381,236.672 218.619,325.328"/>
	<polygon fill="black" stroke-width="1" points="218.619,325.328 214.246,316.969 209.189,325.596"/>
	<text x="79.5" y="302.5" font-family="Times New Roman" font-size="20">browse</text>
	<polygon stroke="black" stroke-width="1" points="218.619,325.328 67.381,236.672"/>
	<polygon fill="black" stroke-width="1" points="67.381,236.672 71.754,245.031 76.811,236.404"/>
	<text x="147.5" y="271.5" font-family="Times New Roman" font-size="20">cancel</text>
	<polygon stroke="black" stroke-width="1" points="259.947,314.783 411.053,63.217"/>
	<polygon fill="black" stroke-width="1" points="411.053,63.217 402.647,67.501 411.22,72.65"/>
	<text x="341.5" y="207.5" font-family="Times New Roman" font-size="20">dismiss</text>
	<polygon stroke="black" stroke-width="1" points="426.5,67.5 426.5,540.5"/>
	<polygon fill="black" stroke-width="1" points="426.5,540.5 431.5,532.5 421.5,532.5"/>
	<text x="379.5" y="310.5" font-family="Times New Roman" font-size="20">close</text>
	<polygon stroke="black" stroke-width="1" points="50.502,250.117 127.498,494.883"/>
	<polygon fill="black" stroke-width="1" points="127.498,494.883 129.867,485.751 120.328,488.752"/>
	<text x="39.5" y="384.5" font-family="Times New Roman" font-size="20">close</text>
	<polygon stroke="black" stroke-width="1" points="127.498,494.883 50.502,250.117"/>
	<polygon fill="black" stroke-width="1" points="50.502,250.117 48.133,259.249 57.672,256.248"/>
	<text x="96.5" y="372.5" font-family="Times New Roman" font-size="20">cancel</text>
	<polygon stroke="black" stroke-width="1" points="166.114,528.299 396.886,565.701"/>
	<polygon fill="black" stroke-width="1" points="396.886,565.701 389.789,559.485 388.19,569.356"/>
	<text x="236.5" y="571.5" font-family="Times New Roman" font-size="20">dismiss</text>
	<polygon stroke="black" stroke-width="1" points="728.168,233.867 519.832,328.133"/>
	<polygon fill="black" stroke-width="1" points="519.832,328.133 529.182,329.39 525.06,320.28"/>
	<text x="560.5" y="271.5" font-family="Times New Roman" font-size="20">browse</text>
	<polygon stroke="black" stroke-width="1" points="486.115,311.187 432.885,66.813"/>
	<polygon fill="black" stroke-width="1" points="432.885,66.813 429.702,75.694 439.473,73.565"/>
	<text x="466.5" y="191.5" font-family="Times New Roman" font-size="20">dismiss</text>
	<polygon stroke="black" stroke-width="1" points="747.372,250.378 678.628,494.622"/>
	<polygon fill="black" stroke-width="1" points="678.628,494.622 685.608,488.276 675.982,485.567"/>
	<text x="663.5" y="372.5" font-family="Times New Roman" font-size="20">close</text>
	<polygon stroke="black" stroke-width="1" points="641.042,529.174 455.958,564.826"/>
	<polygon fill="black" stroke-width="1" points="455.958,564.826 464.76,568.222 462.868,558.403"/>
	<text x="499.5" y="534.5" font-family="Times New Roman" font-size="20">dismiss</text>
	<polygon stroke="black" stroke-width="1" points="519.832,328.133 728.168,233.867"/>
	<polygon fill="black" stroke-width="1" points="728.168,233.867 718.818,232.61 722.94,241.72"/>
	<text x="628.5" y="302.5" font-family="Times New Roman" font-size="20">cancel</text>
	<polygon stroke="black" stroke-width="1" points="678.628,494.622 747.372,250.378"/>
	<polygon fill="black" stroke-width="1" points="747.372,250.378 740.392,256.724 750.018,259.433"/>
	<text x="720.5" y="384.5" font-family="Times New Roman" font-size="20">cancel</text>
	<polygon stroke="black" stroke-width="1" points="399.432,50.436 68.568,208.564"/>
	<polygon fill="black" stroke-width="1" points="68.568,208.564 77.942,209.625 73.63,200.603"/>
	<text x="200.5" y="120.5" font-family="Times New Roman" font-size="20">add</text>
	<polygon stroke="black" stroke-width="1" points="452.683,52.144 729.317,206.856"/>
	<polygon fill="black" stroke-width="1" points="729.317,206.856 724.775,198.588 719.894,207.315"/>
	<text x="556.5" y="150.5" font-family="Times New Roman" font-size="20">edit</text>
	<path stroke="black" stroke-width="1" fill="none" d="M 28.275,194.703 A 22.5,22.5 0 1 1 54.725,194.703"/>
	<text x="2.5" y="145.5" font-family="Times New Roman" font-size="20">saveError</text>
	<polygon fill="black" stroke-width="1" points="54.725,194.703 63.473,191.17 55.382,185.292"/>
	<path stroke="black" stroke-width="1" fill="none" d="M 742.275,194.703 A 22.5,22.5 0 1 1 768.725,194.703"/>
	<text x="716.5" y="145.5" font-family="Times New Roman" font-size="20">saveError</text>
	<polygon fill="black" stroke-width="1" points="768.725,194.703 777.473,191.17 769.382,185.292"/>
	<path stroke="black" stroke-width="1" fill="none" d="M 449.505,18.428 A 22.5,22.5 0 1 1 455.632,44.159"/>
	<text x="499.5" y="23.5" font-family="Times New Roman" font-size="20">browse</text>
	<polygon fill="black" stroke-width="1" points="455.632,44.159 461.095,51.85 464.939,42.618"/>
</svg>
