<?xml version="1.0" standalone="no"?>
<!DOCTYPE svg PUBLIC "-//W3C//DTD SVG 1.1//EN" "http://www.w3.org/Graphics/SVG/1.1/DTD/svg11.dtd">

<svg width="800" height="600" version="1.1" xmlns="http://www.w3.org/2000/svg">
	<ellipse stroke="black" stroke-width="1" fill="none" cx="71.5" cy="241.5" rx="30" ry="30"/>
	<text x="54.5" y="247.5" font-family="Times New Roman" font-size="20">Add</text>
	<ellipse stroke="black" stroke-width="1" fill="none" cx="707.5" cy="241.5" rx="30" ry="30"/>
	<text x="679.5" y="247.5" font-family="Times New Roman" font-size="20">Update</text>
	<ellipse stroke="black" stroke-width="1" fill="none" cx="414.5" cy="39.5" rx="30" ry="30"/>
	<text x="403.5" y="45.5" font-family="Times New Roman" font-size="20">Ok</text>
	<ellipse stroke="black" stroke-width="1" fill="none" cx="234.5" cy="477.5" rx="30" ry="30"/>
	<text x="154.5" y="483.5" font-family="Times New Roman" font-size="20">browseAddWarning</text>
	<ellipse stroke="black" stroke-width="1" fill="none" cx="414.5" cy="564.5" rx="30" ry="30"/>
	<text x="386.5" y="570.5" font-family="Times New Roman" font-size="20">Closed</text>
	<ellipse stroke="black" stroke-width="1" fill="none" cx="71.5" cy="564.5" rx="30" ry="30"/>
	<text x="0.5" y="570.5" font-family="Times New Roman" font-size="20">closeAddWarning</text>
	<ellipse stroke="black" stroke-width="1" fill="none" cx="516.5" cy="477.5" rx="30" ry="30"/>
	<text x="425.5" y="483.5" font-family="Times New Roman" font-size="20">browseUpdateWarning</text>
	<ellipse stroke="black" stroke-width="1" fill="none" cx="707.5" cy="564.5" rx="30" ry="30"/>
	<text x="625.5" y="570.5" font-family="Times New Roman" font-size="20">closeUpdateWarning</text>
	<ellipse stroke="black" stroke-width="1" fill="none" cx="71.5" cy="39.5" rx="30" ry="30"/>
	<text x="2.5" y="45.5" font-family="Times New Roman" font-size="20">deleteOkWarning</text>
	<ellipse stroke="black" stroke-width="1" fill="none" cx="707.5" cy="39.5" rx="30" ry="30"/>
	<text x="622.5" y="45.5" font-family="Times New Roman" font-size="20">deleteUpdateWarning</text>
	<polygon stroke="black" stroke-width="1" points="682.801,224.472 439.199,56.528"/>
	<polygon fill="black" stroke-width="1" points="439.199,56.528 442.948,65.185 448.624,56.952"/>
	<text x="566.5" y="131.5" font-family="Times New Roman" font-size="20">save</text>
	<polygon stroke="black" stroke-width="1" points="97.35,226.276 388.65,54.724"/>
	<polygon fill="black" stroke-width="1" points="388.65,54.724 379.219,54.475 384.294,63.092"/>
	<text x="247.5" y="161.5" font-family="Times New Roman" font-size="20">save</text>
	<polygon stroke="black" stroke-width="1" points="88.549,266.185 217.451,452.815"/>
	<polygon fill="black" stroke-width="1" points="217.451,452.815 217.019,443.391 208.79,449.074"/>
	<text x="88.5" y="379.5" font-family="Times New Roman" font-size="20">browse</text>
	<polygon stroke="black" stroke-width="1" points="217.451,452.815 88.549,266.185"/>
	<polygon fill="black" stroke-width="1" points="88.549,266.185 88.981,275.609 97.21,269.926"/>
	<text x="158.5" y="351.5" font-family="Times New Roman" font-size="20">cancel</text>
	<polygon stroke="black" stroke-width="1" points="245.903,449.752 403.097,67.248"/>
	<polygon fill="black" stroke-width="1" points="403.097,67.248 395.431,72.747 404.68,76.548"/>
	<text x="331.5" y="273.5" font-family="Times New Roman" font-size="20">dismiss</text>
	<polygon stroke="black" stroke-width="1" points="414.5,69.5 414.5,534.5"/>
	<polygon fill="black" stroke-width="1" points="414.5,534.5 419.5,526.5 409.5,526.5"/>
	<text x="367.5" y="308.5" font-family="Times New Roman" font-size="20">close</text>
	<polygon stroke="black" stroke-width="1" points="71.5,271.5 71.5,534.5"/>
	<polygon fill="black" stroke-width="1" points="71.5,534.5 76.5,526.5 66.5,526.5"/>
	<text x="24.5" y="409.5" font-family="Times New Roman" font-size="20">close</text>
	<polygon stroke="black" stroke-width="1" points="71.5,534.5 71.5,271.5"/>
	<polygon fill="black" stroke-width="1" points="71.5,271.5 66.5,279.5 76.5,279.5"/>
	<text x="76.5" y="409.5" font-family="Times New Roman" font-size="20">cancel</text>
	<polygon stroke="black" stroke-width="1" points="101.5,564.5 384.5,564.5"/>
	<polygon fill="black" stroke-width="1" points="384.5,564.5 376.5,559.5 376.5,569.5"/>
	<text x="213.5" y="585.5" font-family="Times New Roman" font-size="20">dismiss</text>
	<polygon stroke="black" stroke-width="1" points="688.627,264.82 535.373,454.18"/>
	<polygon fill="black" stroke-width="1" points="535.373,454.18 544.293,451.107 536.519,444.816"/>
	<text x="547.5" y="351.5" font-family="Times New Roman" font-size="20">browse</text>
	<polygon stroke="black" stroke-width="1" points="509.696,448.282 421.304,68.718"/>
	<polygon fill="black" stroke-width="1" points="421.304,68.718 418.249,77.644 427.988,75.376"/>
	<text x="473.5" y="260.5" font-family="Times New Roman" font-size="20">dismiss</text>
	<polygon stroke="black" stroke-width="1" points="707.5,271.5 707.5,534.5"/>
	<polygon fill="black" stroke-width="1" points="707.5,534.5 712.5,526.5 702.5,526.5"/>
	<text x="660.5" y="409.5" font-family="Times New Roman" font-size="20">close</text>
	<polygon stroke="black" stroke-width="1" points="677.5,564.5 444.5,564.5"/>
	<polygon fill="black" stroke-width="1" points="444.5,564.5 452.5,569.5 452.5,559.5"/>
	<text x="531.5" y="555.5" font-family="Times New Roman" font-size="20">dismiss</text>
	<polygon stroke="black" stroke-width="1" points="535.373,454.18 688.627,264.82"/>
	<polygon fill="black" stroke-width="1" points="688.627,264.82 679.707,267.893 687.481,274.184"/>
	<text x="617.5" y="379.5" font-family="Times New Roman" font-size="20">cancel</text>
	<polygon stroke="black" stroke-width="1" points="707.5,534.5 707.5,271.5"/>
	<polygon fill="black" stroke-width="1" points="707.5,271.5 702.5,279.5 712.5,279.5"/>
	<text x="712.5" y="409.5" font-family="Times New Roman" font-size="20">cancel</text>
	<polygon stroke="black" stroke-width="1" points="388.65,54.724 97.35,226.276"/>
	<polygon fill="black" stroke-width="1" points="97.35,226.276 106.781,226.525 101.706,217.908"/>
	<text x="209.5" y="131.5" font-family="Times New Roman" font-size="20">add</text>
	<polygon stroke="black" stroke-width="1" points="439.199,56.528 682.801,224.472"/>
	<polygon fill="black" stroke-width="1" points="682.801,224.472 679.052,215.815 673.376,224.048"/>
	<text x="525.5" y="161.5" font-family="Times New Roman" font-size="20">edit</text>
	<path stroke="black" stroke-width="1" fill="none" d="M 98.297,228.275 A 22.5,22.5 0 1 1 98.297,254.725"/>
	<text x="144.5" y="247.5" font-family="Times New Roman" font-size="20">saveError</text>
	<polygon fill="black" stroke-width="1" points="98.297,254.725 101.83,263.473 107.708,255.382"/>
	<path stroke="black" stroke-width="1" fill="none" d="M 679.514,251.978 A 22.5,22.5 0 1 1 682.16,225.661"/>
	<text x="554.5" y="239.5" font-family="Times New Roman" font-size="20">saveError</text>
	<polygon fill="black" stroke-width="1" points="682.16,225.661 679.52,216.604 672.862,224.065"/>
	<path stroke="black" stroke-width="1" fill="none" d="M 385.029,44.446 A 22.5,22.5 0 1 1 392.648,19.117"/>
	<text x="283.5" y="19.5" font-family="Times New Roman" font-size="20">browse</text>
	<polygon fill="black" stroke-width="1" points="392.648,19.117 391.784,9.722 383.825,15.776"/>
	<polygon stroke="black" stroke-width="1" points="384.5,39.5 101.5,39.5"/>
	<polygon fill="black" stroke-width="1" points="101.5,39.5 109.5,44.5 109.5,34.5"/>
	<text x="219.5" y="30.5" font-family="Times New Roman" font-size="20">delete</text>
	<polygon stroke="black" stroke-width="1" points="101.5,39.5 384.5,39.5"/>
	<polygon fill="black" stroke-width="1" points="384.5,39.5 376.5,34.5 376.5,44.5"/>
	<text x="217.5" y="60.5" font-family="Times New Roman" font-size="20">cancel</text>
	<polygon stroke="black" stroke-width="1" points="71.5,69.5 71.5,211.5"/>
	<polygon fill="black" stroke-width="1" points="71.5,211.5 76.5,203.5 66.5,203.5"/>
	<text x="6.5" y="146.5" font-family="Times New Roman" font-size="20">dismiss</text>
	<polygon stroke="black" stroke-width="1" points="707.5,211.5 707.5,69.5"/>
	<polygon fill="black" stroke-width="1" points="707.5,69.5 702.5,77.5 712.5,77.5"/>
	<text x="712.5" y="146.5" font-family="Times New Roman" font-size="20">delete</text>
	<polygon stroke="black" stroke-width="1" points="707.5,69.5 707.5,211.5"/>
	<polygon fill="black" stroke-width="1" points="707.5,211.5 712.5,203.5 702.5,203.5"/>
	<text x="651.5" y="146.5" font-family="Times New Roman" font-size="20">cancel</text>
	<polygon stroke="black" stroke-width="1" points="678.908,48.581 100.092,232.419"/>
	<polygon fill="black" stroke-width="1" points="100.092,232.419 109.231,234.762 106.204,225.232"/>
	<text x="329.5" y="130.5" font-family="Times New Roman" font-size="20">dismiss</text>
</svg>
